<svg id="Layer_1" data-name="Layer 1" xmlns="http://www.w3.org/2000/svg" width="516.21" height="639.36" viewBox="0 0 516.21 639.36"><defs><style>.cls-1{fill:#fbb077;}.cls-2{fill:#fbb072;}.cls-3{fill:#fff;}.cls-4{fill:#89aae5;}.cls-5{fill:#89cce5;}.cls-6{fill:#8c6239;}.cls-7{fill:#152230;}</style></defs><title>Pige</title><ellipse class="cls-1" cx="258.5" cy="226.69" rx="225.5" ry="181.04"/><path d="M266.7,257.61a97,97,0,0,1-21.63-2.36l.42-2a110.25,110.25,0,0,0,24.24,2.28,131.55,131.55,0,0,0,20.5-2.28l.38,2a113,113,0,0,1-20.82,2.32C268.75,257.6,267.72,257.61,266.7,257.61Z"/><ellipse class="cls-2" cx="33" cy="196.24" rx="14" ry="22.88"/><ellipse class="cls-2" cx="478.6" cy="193.86" rx="15.6" ry="25.5"/><path class="cls-1" d="M246,254.36c-2.31-3.32-3-5.42-1-8"/><path d="M245.18,254.93c-2.42-3.47-3.35-6.09-1-9.18l1.58,1.22c-1.51,2-1.28,3.49,1,6.82Z"/><path class="cls-1" d="M289.83,254.36c2.31-3.32,3-5.42,1-8"/><path d="M290.65,254.93,289,253.79c2.31-3.33,2.54-4.85,1-6.82l1.58-1.22C294,248.84,293.07,251.46,290.65,254.93Z"/><ellipse class="cls-3" cx="143.74" cy="201.69" rx="39.9" ry="38.65"/><path d="M143.74,163.55c21.73,0,39.4,17.11,39.4,38.14s-17.67,38.15-39.4,38.15-39.39-17.11-39.39-38.15,17.67-38.14,39.39-38.14m0-1c-22.31,0-40.39,17.52-40.39,39.14s18.08,39.15,40.39,39.15,40.4-17.53,40.4-39.15-18.09-39.14-40.4-39.14Z"/><ellipse cx="143.22" cy="201.18" rx="12.09" ry="11.7"/><path d="M143.22,190a11.21,11.21,0,1,1-11.59,11.2A11.42,11.42,0,0,1,143.22,190m0-1a12.21,12.21,0,1,0,12.59,12.2A12.4,12.4,0,0,0,143.22,189Z"/><path d="M181.75,162.79c-25.38-14.7-51.12-14.7-76.5,0l-.5-.87c25.71-14.89,51.79-14.89,77.5,0Z"/><rect x="103.51" y="150.29" width="1" height="11.77" transform="translate(-56.71 59.34) rotate(-25.27)"/><rect x="110.41" y="147.32" width="1" height="11.29" transform="translate(-54.66 61.95) rotate(-25.26)"/><rect x="116.82" y="144.56" width="1" height="11.41" transform="translate(-41.75 45.18) rotate(-18.57)"/><rect x="123.48" y="142.66" width="1" height="11.21" transform="translate(-34.86 38.16) rotate(-15.37)"/><rect x="129.81" y="140.8" width="1" height="11.62" transform="translate(-19.26 19.7) rotate(-8.05)"/><rect x="137.1" y="140.86" width="1" height="10.61" transform="translate(-2.71 2.6) rotate(-1.07)"/><rect x="140.35" y="145.36" width="10" height="1" transform="translate(-4.69 286.88) rotate(-88.32)"/><rect x="147.21" y="146.11" width="11.55" height="1" transform="translate(-6.78 285.81) rotate(-84.85)"/><rect x="154.49" y="147.41" width="10.26" height="1" transform="translate(-13.54 279.71) rotate(-80.1)"/><rect x="160.17" y="149.07" width="9.83" height="1" transform="translate(-25.61 264.71) rotate(-73.3)"/><rect x="166.66" y="151.52" width="9.37" height="1" transform="translate(-42.35 234.5) rotate(-62.68)"/><rect x="172.43" y="153.83" width="9.9" height="1" transform="translate(-38.14 248.31) rotate(-64.58)"/><rect x="177.24" y="156.41" width="9.52" height="1" transform="translate(-47.1 229.41) rotate(-58.33)"/><ellipse class="cls-3" cx="389.74" cy="206.69" rx="39.9" ry="38.65"/><path d="M389.74,168.55c21.73,0,39.4,17.11,39.4,38.14s-17.67,38.15-39.4,38.15-39.39-17.11-39.39-38.15,17.67-38.14,39.39-38.14m0-1c-22.31,0-40.39,17.52-40.39,39.14s18.08,39.15,40.39,39.15,40.4-17.53,40.4-39.15-18.09-39.14-40.4-39.14Z"/><ellipse cx="389.22" cy="206.18" rx="12.09" ry="11.7"/><path d="M389.22,195a11.21,11.21,0,1,1-11.59,11.2A11.42,11.42,0,0,1,389.22,195m0-1a12.21,12.21,0,1,0,12.59,12.2A12.4,12.4,0,0,0,389.22,194Z"/><path d="M427.75,167.79c-25.38-14.7-51.12-14.7-76.5,0l-.5-.87c25.71-14.89,51.79-14.89,77.5,0Z"/><rect x="349.51" y="155.29" width="1" height="11.77" transform="translate(-35.31 164.82) rotate(-25.27)"/><rect x="356.41" y="152.32" width="1" height="11.29" transform="translate(-33.28 167.39) rotate(-25.26)"/><rect x="362.82" y="149.56" width="1" height="11.41" transform="translate(-30.53 123.79) rotate(-18.57)"/><rect x="369.48" y="147.66" width="1" height="11.21" transform="translate(-27.39 103.54) rotate(-15.37)"/><rect x="375.81" y="145.8" width="1" height="11.62" transform="translate(-17.53 54.22) rotate(-8.05)"/><rect x="383.1" y="145.86" width="1" height="10.61" transform="translate(-2.76 7.19) rotate(-1.07)"/><rect x="386.35" y="150.36" width="10" height="1" transform="translate(229.1 537.63) rotate(-88.32)"/><rect x="393.21" y="151.11" width="11.55" height="1" transform="translate(212.15 535.36) rotate(-84.85)"/><rect x="400.49" y="152.41" width="10.26" height="1" transform="translate(185.22 526.18) rotate(-80.1)"/><rect x="406.17" y="154.07" width="9.83" height="1" transform="translate(144.91 503.9) rotate(-73.3)"/><rect x="412.66" y="156.52" width="9.37" height="1" transform="translate(86.32 455.77) rotate(-62.68)"/><rect x="418.43" y="158.83" width="9.9" height="1" transform="translate(97.77 473.35) rotate(-64.58)"/><rect x="423.24" y="161.41" width="9.52" height="1" transform="translate(65.48 441.14) rotate(-58.33)"/><path class="cls-4" d="M103.12,595.36h29c-11.09-70.27-13.68-136,0-193h-29C93,458.55,94.25,524.57,103.12,595.36Z"/><path class="cls-4" d="M413,594.36H384c11.09-70.27,13.68-136,0-193h29C423.1,457.55,421.87,523.57,413,594.36Z"/><rect class="cls-5" x="138" y="374.36" width="238" height="248"/><circle class="cls-5" cx="123.5" cy="393.86" r="32.5"/><circle class="cls-5" cx="393.5" cy="391.86" r="32.5"/><ellipse class="cls-1" cx="398.5" cy="594.36" rx="17.5" ry="13"/><ellipse class="cls-1" cx="118.5" cy="595.36" rx="17.5" ry="13"/><path class="cls-6" d="M411.12,135.73c26.12,25.81,40,65.58,36.88,106.63,13.2-40.46,12-81-5-105.7Z"/><path class="cls-6" d="M429.12,135.73c20.45,18.55,31.33,47.13,28.87,76.63,10.33-29.08,9.42-58.23-3.91-76Z"/><path class="cls-6" d="M396.12,135.73c26.71,18.31,40.94,46.52,37.72,75.63,13.5-28.7,12.31-57.47-5.11-75Z"/><path class="cls-6" d="M110,133.73c-26.12,25.81-40,65.58-36.88,106.63-13.2-40.46-12-81,5-105.7Z"/><path class="cls-6" d="M92,133.73c-20.45,18.55-31.33,47.13-28.87,76.63-10.33-29.08-9.42-58.23,3.91-76Z"/><path class="cls-6" d="M125,133.73C98.29,152,84.06,180.25,87.28,209.36c-13.5-28.7-12.31-57.47,5.11-75Z"/><path class="cls-5" d="M78.8,98.7c39.27-39.48,89.38-68.28,151.91-84.82a147.78,147.78,0,0,1,80.72,1.52c52.83,16.4,98.48,48.87,140.75,89Z"/><path class="cls-5" d="M59.54,140.68c124.65-9,258.83-8.94,399.67-1.65,3.46-15.26,4.28-29.41-.92-41-140.88-8.54-275.1-10.49-399.72-.35C54.37,111.06,55.64,125.59,59.54,140.68Z"/><path class="cls-5" d="M179.2,90.53c17.42-24.18,44.41-47.93,75.62-74.65.85-.73,6.84-6.47,5.79-6C198.06,36.63,141.35,66.65,106.28,93.41"/><path d="M106.58,93.81,106,93C139.7,67.28,194.54,37.58,260.41,9.4a.56.56,0,0,1,.74.18c.57.91-5.94,6.63-6,6.68-32.27,27.63-58.32,50.66-75.54,74.56l-.81-.58c17.29-24,43.38-47.07,75.7-74.74.64-.54,3.08-2.89,4.58-4.44C194.05,39,139.94,68.35,106.58,93.81Z"/><path class="cls-5" d="M341.82,89.53C324.27,65.18,297,41.26,265.53,14.31c-.73-.63-4.74-4.84-3.84-4.45,62.94,26.89,117.83,55.67,153.05,82.55"/><path d="M414.43,92.81C381.3,67.53,329,39.24,263,11c1,1.09,2.36,2.55,2.85,3,32.68,28,59.06,51.28,76.37,75.31l-.81.58c-17.25-23.94-43.58-47.2-76.21-75.13,0,0-4.6-4.24-4.06-5.11a.57.57,0,0,1,.75-.18C328.63,37.92,381.59,66.49,415,92Z"/><rect x="87.81" y="95.55" width="1" height="43.2" transform="translate(-4.3 3.37) rotate(-2.13)"/><rect x="127.97" y="93.55" width="1" height="43.2" transform="translate(-4.2 4.86) rotate(-2.13)"/><rect x="168.13" y="91.55" width="1" height="43.2" transform="translate(-4.09 6.35) rotate(-2.13)"/><rect x="207.2" y="91.55" width="1" height="43.2" transform="translate(-4.07 7.81) rotate(-2.13)"/><rect x="250.62" y="90.55" width="1" height="43.2" transform="translate(-4 9.41) rotate(-2.13)"/><rect x="291.87" y="91.55" width="1" height="43.2" transform="translate(-4 10.95) rotate(-2.13)"/><rect x="330.94" y="91.55" width="1" height="42.83" transform="matrix(1, -0.04, 0.04, 1, -4.01, 12.52)"/><rect x="372.19" y="93.34" width="1" height="41.41" transform="translate(-4.15 14.55) rotate(-2.22)"/><rect x="408.01" y="95.34" width="1" height="41.41" transform="translate(-4.2 15.95) rotate(-2.22)"/><line class="cls-6" x1="439.7" y1="137.73" x2="438.1" y2="96.36"/><rect x="438.4" y="96.34" width="1" height="41.41" transform="translate(-4.21 17.13) rotate(-2.22)"/><line class="cls-7" x1="265.49" y1="90.56" x2="261.15" y2="9.36"/><rect x="262.82" y="9.3" width="1" height="81.32" transform="translate(-2.29 14.13) rotate(-3.06)"/><path class="cls-5" d="M81.56,96c124-6.85,245.14-6.86,363,1.27"/><path d="M444.5,97.73c-113.88-7.86-236-8.28-362.91-1.27l0-1c127-7,249.11-6.59,363,1.27Z"/></svg>
