<svg id="Layer_1" data-name="Layer 1" xmlns="http://www.w3.org/2000/svg" width="516.86" height="596.51" viewBox="0 0 516.86 596.51"><defs><style>.cls-1{fill:#333;}.cls-2{fill:#fbb077;}.cls-3{fill:#fff;}.cls-4{fill:#152230;}.cls-5{fill:#8c6239;}.cls-6{fill:#fbb072;}</style></defs><title>karakter</title><path class="cls-1" d="M109.12,570h29c-11.09-70.27-13.68-136,0-193h-29C99,433.2,100.25,499.22,109.12,570Z"/><path class="cls-1" d="M419,569H390c11.09-70.27,13.68-136,0-193h29C429.1,432.2,427.87,498.22,419,569Z"/><ellipse class="cls-2" cx="257.5" cy="198.33" rx="225.5" ry="181.04"/><ellipse class="cls-3" cx="142.74" cy="173.33" rx="39.9" ry="38.65"/><path d="M142.74,135.19c21.73,0,39.4,17.11,39.4,38.14s-17.67,38.15-39.4,38.15-39.39-17.11-39.39-38.15,17.67-38.14,39.39-38.14m0-1c-22.31,0-40.39,17.53-40.39,39.14s18.08,39.15,40.39,39.15,40.4-17.53,40.4-39.15-18.09-39.14-40.4-39.14Z"/><ellipse cx="142.22" cy="172.83" rx="12.09" ry="11.7"/><path d="M142.22,161.63a11.21,11.21,0,1,1-11.59,11.2,11.41,11.41,0,0,1,11.59-11.2m0-1a12.21,12.21,0,1,0,12.59,12.2,12.39,12.39,0,0,0-12.59-12.2Z"/><path class="cls-3" d="M399.81,218.08c-22,0-39.9-17.33-39.9-38.64s17.9-38.65,39.9-38.65,39.9,17.34,39.9,38.65S421.81,218.08,399.81,218.08Z"/><path d="M399.81,141.29c21.72,0,39.4,17.11,39.4,38.15s-17.68,38.14-39.4,38.14-39.4-17.11-39.4-38.14,17.68-38.15,39.4-38.15m0-1c-22.31,0-40.4,17.53-40.4,39.15s18.09,39.14,40.4,39.14,40.4-17.53,40.4-39.14-18.09-39.15-40.4-39.15Z"/><ellipse cx="399.29" cy="178.93" rx="12.09" ry="11.7"/><path d="M399.29,167.73a11.21,11.21,0,1,1-11.6,11.2,11.41,11.41,0,0,1,11.6-11.2m0-1a12.21,12.21,0,1,0,12.59,12.2,12.4,12.4,0,0,0-12.59-12.2Z"/><path d="M265.7,229.25a96.37,96.37,0,0,1-21.63-2.36l.42-1.95a110.85,110.85,0,0,0,24.24,2.27,131.55,131.55,0,0,0,20.5-2.28l.38,2a112.13,112.13,0,0,1-20.82,2.32C267.75,229.24,266.72,229.25,265.7,229.25Z"/><path class="cls-4" d="M51,126.16C51,62.47,143.23,10.84,257,10.84S463,62.47,463,126.16"/><path class="cls-5" d="M209.54,97.05c0-22.88,21.25-41.43,47.46-41.43s47.46,18.55,47.46,41.43"/><path d="M307.4,117.2H209.66q-8.91-10.08,0-20.15H307.4Z"/><ellipse class="cls-4" cx="216.88" cy="106.57" rx="2.45" ry="2.8"/><ellipse class="cls-4" cx="253.09" cy="106.57" rx="2.45" ry="2.8"/><ellipse class="cls-4" cx="242.32" cy="106.57" rx="2.45" ry="2.8"/><ellipse class="cls-4" cx="229.6" cy="106.57" rx="2.45" ry="2.8"/><ellipse class="cls-4" cx="287.34" cy="106.57" rx="2.45" ry="2.8"/><ellipse class="cls-4" cx="276.57" cy="106.57" rx="2.45" ry="2.8"/><ellipse class="cls-4" cx="265.81" cy="106.57" rx="2.45" ry="2.8"/><ellipse class="cls-4" cx="299.08" cy="106.57" rx="2.45" ry="2.8"/><ellipse cx="259.5" cy="11" rx="19.5" ry="5"/><ellipse class="cls-6" cx="34.5" cy="170.5" rx="20.5" ry="33.5"/><ellipse class="cls-6" cx="482.5" cy="173.5" rx="20.5" ry="33.5"/><path class="cls-2" d="M245,226c-2.31-3.31-3-5.42-1-8"/><path d="M244.18,226.57c-2.42-3.47-3.35-6.09-1-9.18l1.58,1.22c-1.51,2-1.28,3.5,1,6.82Z"/><path class="cls-2" d="M288.83,226c2.31-3.31,3-5.42,1-8"/><path d="M289.65,226.57,288,225.43c2.31-3.32,2.54-4.85,1-6.82l1.58-1.22C293,220.48,292.07,223.1,289.65,226.57Z"/><rect class="cls-4" x="144" y="349" width="238" height="248"/><circle class="cls-4" cx="129.5" cy="368.5" r="32.5"/><circle class="cls-4" cx="399.5" cy="366.5" r="32.5"/><ellipse class="cls-2" cx="404.5" cy="569" rx="17.5" ry="13"/><ellipse class="cls-2" cx="124.5" cy="570" rx="17.5" ry="13"/></svg>
