<svg xmlns="http://www.w3.org/2000/svg" width="795.83" height="122.5" viewBox="0 0 795.83 122.5"><defs><style>.cls-1{fill:#f2902c;}.cls-2{fill:#fff;}</style></defs><title>indstillinger</title><g id="Settings"><rect class="cls-1" width="795.83" height="122.5" rx="20" ry="20"/><path class="cls-2" d="M219.87,37.24v40H209.49v-40Z"/><path class="cls-2" d="M228.27,77.26v-40h10.38l19.14,24.48V37.24h10.38v40H257.79L238.65,52.78V77.26Z"/><path class="cls-2" d="M279.21,65.26c2.22,2.1,5.58,4.08,9.18,4.08a5.27,5.27,0,0,0,4-1.38,3.62,3.62,0,0,0,1-2.52,3.13,3.13,0,0,0-1.14-2.4c-1-.9-2.58-1.32-5.16-2.1l-2.7-.84a13.07,13.07,0,0,1-5.76-3.24,10.07,10.07,0,0,1-2.28-7.08,13.08,13.08,0,0,1,3.66-9.66c2-2,5.4-3.78,10.26-3.78a28.15,28.15,0,0,1,12.36,3.24l-4.14,8.1c-3.12-2.46-5.46-2.7-6.84-2.7a5,5,0,0,0-3.42,1.2,3,3,0,0,0-1,2.16,2.68,2.68,0,0,0,.54,1.8c.3.36,1,1.08,3.48,1.8l3.18,1c2.51.78,5.16,1.68,7.26,4A9.45,9.45,0,0,1,304.29,64a13.57,13.57,0,0,1-3.79,10.08c-3.42,3.42-7.55,4.08-11.81,4.08a21.39,21.39,0,0,1-7.86-1.32,27.94,27.94,0,0,1-6.06-3.18Z"/><path class="cls-2" d="M326,46.06v31.2H315.57V46.06h-8.52V37.24h27.41v8.82Z"/><path class="cls-2" d="M349.46,37.24v40H339.09v-40Z"/><path class="cls-2" d="M368.24,37.24v31.2h12.48v8.82H357.87v-40Z"/><path class="cls-2" d="M396.44,37.24v31.2h12.48v8.82H386.06v-40Z"/><path class="cls-2" d="M424.64,37.24v40H414.26v-40Z"/><path class="cls-2" d="M433,77.26v-40h10.38l19.14,24.48V37.24h10.38v40H462.56L443.42,52.78V77.26Z"/><path class="cls-2" d="M500.54,54.58h20.64c0,7.92-1.62,13.56-6.42,18-4.2,3.9-9,5-14.1,5-7.2,0-12.12-2.64-15.36-5.94a20.17,20.17,0,0,1-5.76-14.46,20.85,20.85,0,0,1,6-15c3.3-3.3,8.46-5.88,15.54-5.88a21.39,21.39,0,0,1,10.8,2.7A19.61,19.61,0,0,1,519,47.26l-9.9,4.08a9.79,9.79,0,0,0-2.88-4,8.39,8.39,0,0,0-5.58-2,9.67,9.67,0,0,0-6.84,2.76,13.5,13.5,0,0,0-3.48,9.18,12.52,12.52,0,0,0,3.18,8.64A9.47,9.47,0,0,0,500.84,69a8.57,8.57,0,0,0,5.76-1.86,7.12,7.12,0,0,0,2.46-4.44h-8.52Z"/><path class="cls-2" d="M550.52,46.06H538.16v6.66h11.7v8.82h-11.7v6.9h12.36v8.82H527.78v-40h22.74Z"/><path class="cls-2" d="M573.32,37.24c3,0,6.84.48,9.78,3.54a13.17,13.17,0,0,1,3.42,9,11.55,11.55,0,0,1-3.18,8.34,11.21,11.21,0,0,1-5.52,2.76l12.54,16.38h-12.9l-10-15.36V77.26H557.12v-40ZM567.5,55.18h2a7.8,7.8,0,0,0,5-1.62,5,5,0,0,0,1.32-3.36,4.72,4.72,0,0,0-1.38-3.36,7,7,0,0,0-5-1.56h-2Z"/></g></svg>
