<svg xmlns="http://www.w3.org/2000/svg" width="1086.83" height="416.54" viewBox="0 0 1086.83 416.54"><defs><style>.cls-1{fill:#2a303b;}.cls-2{fill:#fd9128;}.cls-3{font-size:48px;fill:#fff;font-family:FuturaPT-Demi, Futura PT;}.cls-4{letter-spacing:-0.01em;}.cls-5{font-size:30px;}.cls-6{letter-spacing:-0.01em;}.cls-7{letter-spacing:-0.01em;}.cls-8{letter-spacing:-0.01em;}.cls-9{letter-spacing:-0.02em;}.cls-10{letter-spacing:-0.02em;}.cls-11{letter-spacing:0.03em;}.cls-12{letter-spacing:0.04em;}.cls-13{letter-spacing:0.02em;}.cls-14{letter-spacing:0.02em;}.cls-15{letter-spacing:-0.07em;}.cls-16{letter-spacing:-0.1em;}.cls-17{letter-spacing:-0.01em;}.cls-18{letter-spacing:-0.08em;}.cls-19{letter-spacing:-0.02em;}</style></defs><title>level_complete_text</title><g id="Level_complete" data-name="Level complete"><rect class="cls-1" width="1086.83" height="416.54" rx="53.1" ry="53.1"/><rect class="cls-2" x="83.51" y="376.92" width="324.4" height="3.62" rx="1.81" ry="1.81"/><text class="cls-3" transform="translate(83.51 64.18) scale(1.09 1)">Dejligt! I fik snak<tspan class="cls-4" x="337.77" y="0">k</tspan><tspan x="361.82" y="0">et tingene igennem!</tspan><tspan class="cls-5"><tspan x="0" y="72">Men er det så let i vir</tspan><tspan class="cls-6" x="267.35" y="72">k</tspan><tspan x="282.38" y="72">elig</tspan><tspan class="cls-7" x="329.36" y="72">h</tspan><tspan x="345.05" y="72">eden?</tspan><tspan x="0" y="144">Det kan </tspan><tspan class="cls-8" x="106.32" y="144">v</tspan><tspan x="121.14" y="144">æ</tspan><tspan class="cls-9" x="145.38" y="144">r</tspan><tspan x="155.55" y="144">e </tspan><tspan class="cls-10" x="178.2" y="144">s</tspan><tspan class="cls-8" x="189.72" y="144">v</tspan><tspan x="204.54" y="144">æ</tspan><tspan class="cls-11" x="228.78" y="144">r</tspan><tspan x="240.5" y="144">t for både børn, unge og </tspan><tspan class="cls-10" x="564.01" y="144">v</tspan><tspan x="578.53" y="144">o</tspan><tspan class="cls-9" x="595.57" y="144">k</tspan><tspan x="610.3" y="144">sne at snak</tspan><tspan class="cls-7" x="753.88" y="144">k</tspan><tspan x="768.91" y="144">e om </tspan><tspan x="0" y="180">følsomme emner som billeddelin</tspan><tspan class="cls-12" x="415.4" y="180">g</tspan><tspan x="433.7" y="180">. De</tspan><tspan class="cls-13" x="484.01" y="180">r</tspan><tspan x="495.44" y="180">for har S</tspan><tspan class="cls-9" x="605.95" y="180">e</tspan><tspan x="620.98" y="180">x &amp; Samfund </tspan><tspan x="0" y="216">skabt Pri</tspan><tspan class="cls-8" x="110.73" y="216">v</tspan><tspan x="125.55" y="216">atSna</tspan><tspan class="cls-14" x="199.88" y="216">k</tspan><tspan x="215.87" y="216">, </tspan><tspan class="cls-10" x="232.7" y="216">hv</tspan><tspan x="262.64" y="216">or unge i alde</tspan><tspan class="cls-9" x="440.39" y="216">r</tspan><tspan x="450.55" y="216">en </tspan><tspan class="cls-15" x="489.22" y="216">1</tspan><tspan x="504.16" y="216">0-</tspan><tspan class="cls-16" x="532" y="216">1</tspan><tspan x="545.92" y="216">5 år kan få en god snak </tspan><tspan x="0" y="252">med en e</tspan><tspan class="cls-13" x="117.78" y="252">r</tspan><tspan x="129.21" y="252">fa</tspan><tspan class="cls-9" x="155.06" y="252">r</tspan><tspan x="165.23" y="252">en </tspan><tspan class="cls-8" x="203.9" y="252">r</tspan><tspan x="214.4" y="252">ådgi</tspan><tspan class="cls-17" x="272.78" y="252">v</tspan><tspan x="287.6" y="252">e</tspan><tspan class="cls-18" x="303.26" y="252">r</tspan><tspan x="311.54" y="252">, </tspan><tspan class="cls-6" x="328.37" y="252">h</tspan><tspan x="344.06" y="252">elt ano</tspan><tspan class="cls-19" x="432.1" y="252">n</tspan><tspan x="447.52" y="252">ymt, både </tspan><tspan class="cls-10" x="586.24" y="252">o</tspan><tspan class="cls-17" x="602.68" y="252">v</tspan><tspan x="617.5" y="252">er telefonen, på </tspan><tspan x="0" y="288">chat eller via b</tspan><tspan class="cls-9" x="187.58" y="288">r</tspan><tspan class="cls-8" x="197.75" y="288">e</tspan><tspan x="213.11" y="288">vka</tspan><tspan class="cls-10" x="260.69" y="288">s</tspan><tspan x="272.21" y="288">s</tspan><tspan class="cls-11" x="284.33" y="288">e</tspan><tspan x="300.92" y="288">.</tspan></tspan></text></g></svg>